# xmcd
#
# Track frame offsets: 
#        150
#        31357
#        72163
#        74556
#        78724
#        117977
#        155660
#        196053
#        231513
#        270365
#        276869
#
# Disc length: 4228 seconds
#
# Revision: 1
# Processed by: cddbd v1.5.2PL0 Copyright (c) Steve Scherf et al.
# Submitted via: ExactAudioCopy v1.0b1
#
DISCID=a010820b
DTITLE=Albert Ayler - Holy Ghost CD2
DYEAR=1960
DGENRE=Jazz
TTITLE0=The Wizard
TTITLE1=Children
TTITLE2=Spirits [theme]
TTITLE3=Spoken Radio Introduction
TTITLE4=Spirits
TTITLE5=Vibrations
TTITLE6=[tune Q]
TTITLE7=Mothers
TTITLE8=Children
TTITLE9=Spirits [theme]
TTITLE10=[untitled] (collective)
EXTD=YEAR: 2004
EXTT0=
EXTT1=
EXTT2=
EXTT3=
EXTT4=
EXTT5=
EXTT6=
EXTT7=
EXTT8=
EXTT9=
EXTT10=
PLAYORDER=
